<svg width="135" height="48" viewBox="0 0 135 48" fill="none" xmlns="http://www.w3.org/2000/svg">
<g clip-path="url(#clip0)">
<path d="M7.4 13.1L1.2 23.8C-0.4 26.6 -0.4 30.1 1.2 32.9L7.4 43.6C9 46.4 12 48.1 15.3 48.1H27.6C30.9 48.1 33.9 46.4 35.5 43.5L41.6 32.8C43.2 30 43.2 26.5 41.6 23.7L35.4 13C33.8 10.2 30.8 8.5 27.5 8.5H15.2C12 8.5 9 10.3 7.4 13.1Z" fill="#0B476D"/>
<path d="M14 19.1001C14 19.1001 11.2 23.8001 11.4 25.5001C11.8 28.7001 14 37.8001 14 37.8001H14.7L16.6 29.6001C16.5 29.6001 14.7 26.0001 14 19.1001Z" fill="#FAB266"/>
<path d="M29.5 19.2C29.5 19.2 32.3 23.8999 32.1 25.5999C31.7 28.7999 29.5 37.9 29.5 37.9H28.8L26.9 29.7C27 29.7 28.9 26.1 29.5 19.2Z" fill="#F1645D"/>
<path d="M21.8 -0.199951C37.5 17.9 24.6 34.5 24.6 34.5H21.8V-0.199951Z" fill="#398689"/>
<path d="M21.8 -0.300049C6.1 17.8 19 34.4 19 34.4H21.8V-0.300049Z" fill="#78BE97"/>
<text x="55"  y="35"
        style="font-family: Times New Roman;
               font-size  : 24;
               font-weight: 900;
               stroke     : #0F1926;
               fill       : #E8F0F8;">
    CTK
</text>
<path d="M34.3 44.9999C34.2 44.8999 34.1 44.6999 34 44.5999C33.6 44.2999 33.2 44.1999 32.7 44.3999C32.5 43.7999 32 43.1999 31.3 43.1999C30.8 43.1999 30.4 43.3999 30.1 43.6999C29.6 42.9999 28.7 42.3999 27.7 42.3999C27.6 42.3999 27.5 42.3999 27.5 42.3999C27.3 41.4999 26.7 40.7999 26 40.2999C24.6 38.7999 24.6 34.3999 24.6 34.3999H21.7H18.8C18.8 34.3999 18.7 38.7999 17.3 40.2999C16.7 40.6999 16.3 41.2999 16.1 41.8999C15.7 41.6999 15.3 41.5999 14.8 41.4999C13.4 41.3999 12.1 42.2999 11.6 43.5999C11.4 43.4999 11.2 43.4999 11 43.4999C10.4 43.4999 9.8 43.7999 9.5 44.2999C9.4 44.1999 9.2 44.1999 9 44.1999C8.6 44.1999 8.2 44.3999 8 44.6999C8.6 45.3999 9.2 45.8999 9.9 46.3999C10.3 46.6999 10.7 46.8999 11.1 47.0999C11.5 47.2999 11.9 47.3999 12.2 47.5999C12.3 47.5999 12.3 47.5999 12.4 47.6999C12.7 47.7999 13.1 47.8999 13.5 47.8999C13.6 47.8999 13.7 47.8999 13.7 47.8999C14.1 47.9999 14.6 47.9999 15 47.9999H27.3C27.7 47.9999 28.1 47.9999 28.6 47.8999H28.7C29.9 47.6999 31.1 47.2999 32.1 46.5999C33.1 46.1999 33.7 45.6999 34.3 44.9999Z" fill="#9BDCD9"/>
<path d="M15.3 48.0999H27.6C28.6 48.0999 29.6 47.8999 30.5 47.5999C30.1 46.7999 28.3 45.5999 27.6 45.2999C25.4 44.4999 26.3 41.9999 24.1 41.9999C22.7 41.9999 22.1 37.8999 22.1 37.8999H21.4C21.4 37.8999 20.9 41.8999 19.5 41.7999C16.7 41.6999 18.5 44.5999 15.2 45.4999C13.1 46.0999 12.4 46.8999 12.3 47.4999C13.2 47.7999 14.2 48.0999 15.3 48.0999Z" fill="#D7F1F0"/>
<path d="M21.8 17.8999C21.8 17.8999 18.3 21.8999 18.7 23.7999C19.3 26.9999 21.5 37.7999 21.5 37.7999H21.8V17.8999Z" fill="#FAB266"/>
<path d="M21.8 18C21.8 18 25.3 22 24.9 23.9C24.3 27.1 22.1 37.9 22.1 37.9H21.8V18Z" fill="#F1645D"/>
  
</g>
<defs>
<clipPath id="clip0">
<rect width="135" height="48" fill="white"/>
</clipPath>
</defs>
</svg>



